PathFileType	4	(X/Y/Z)	pose_F01_0-75.trc
DataRate	CameraRate	NumFrames	NumMarkers	Units	OrigDataRate	OrigDataStartFrame	OrigNumFrames
30	30	5	21	m	30	42	75
Frame#	Time	CHip			RHip			RKnee			RAnkle			RBigToe			RSmallToe			RHeel			LHip			LKnee			LAnkle			LBigToe			LSmallToe			LHeel			Neck			Nose			RShoulder			RElbow			RWrist			LShoulder			LElbow			LWrist			
		X1	Y1	Z1	X2	Y2	Z2	X3	Y3	Z3	X4	Y4	Z4	X5	Y5	Z5	X6	Y6	Z6	X7	Y7	Z7	X8	Y8	Z8	X9	Y9	Z9	X10	Y10	Z10	X11	Y11	Z11	X12	Y12	Z12	X13	Y13	Z13	X14	Y14	Z14	X15	Y15	Z15	X16	Y16	Z16	X17	Y17	Z17	X18	Y18	Z18	X19	Y19	Z19	X20	Y20	Z20	X21	Y21	Z21	
42	1.4	-0.16358244913358674	1.85123017841458	-0.6425338128532373	-0.17632676846388404	1.8498176109310438	-0.5780482079728543	-0.19155136827463473	1.7262287547765638	-0.5515748803791468	-0.1892687357630292	1.61273813286293	-0.5332788365054223	-0.20133129334533562	1.5886783080986502	-0.523165802034298				-0.18503901873596967	1.6067157950971103	-0.5426502689754532	-0.15008667894181485	1.8498084829460508	-0.6979907058911615	-0.15841773209083096	1.730946967963991	-0.6729445599575874	-0.1450025127122167	1.61745033135279	-0.6707732088459566	-0.16367857149447967	1.5907170001028101	-0.6616753878159832	-0.1558532608023708	1.593542949875422	-0.6948625447301993	-0.1362347048758959	1.6094634282481064	-0.6579020610428412	-0.14418808828714505	1.9868596018707432	-0.6849948821307725	-0.16531088706766842	2.0411314219725782	-0.6708693122767024	-0.16160591478881645	1.9825811052084055	-0.6049946763699943	-0.1961524654831045	1.9408944470300489	-0.5621286409072801	-0.1728427122352528	1.9868404648688631	-0.626247952801999	-0.12773009146114903	1.9883751752993772	-0.7650094900882669	-1.211354868598972	1.8585245703585582	0.3508381743607622	-0.15354039457089894	1.9963929296205167	-0.7024962726028792
43	1.4333333333333333	-0.16126555906372578	1.8526423420824587	-0.6452194794497701	-0.1728669428943732	1.8518052559464704	-0.5860980083589837	-0.18841271647417338	1.7303681395858974	-0.5597470837420969	-0.1872511675979118	1.6131134071705249	-0.5355927164486135	-0.20133129334533562	1.5886783080986502	-0.523165802034298				-0.18498005925177297	1.6099256026081483	-0.5431021866905302	-0.1476770741581992	1.8509841034419712	-0.7006286189146815	-0.1539966545879408	1.72914080995342	-0.6773592932719297	-0.14546044416475842	1.6204158780157916	-0.6704015385994428	-0.16626226457903828	1.5933972862013444	-0.6591552028303652	-0.15657143501129508	1.5979635022493972	-0.6940476587470754	-0.13660085963471233	1.6114265067089089	-0.6577643180144823	-0.1404909298813551	1.986780202283257	-0.6928244529377631	-0.16038694356046812	2.0439373870413453	-0.6844365596330352	-1.55994452052305	1.8959971344675994	0.9142882532637484	-0.18985621909456704	1.9442531023456493	-0.5695320600392321	-0.1675078983199862	1.9886686187122806	-0.6474550530974459	-0.12091962587010778	1.988512553007448	-0.7723152917556712	-1.1655972350642316	1.8597125656388038	0.29327462360903594	-1.2960105240072413	1.9005712154478118	0.49140770823884744
44	1.4666666666666666	-0.15974933307185107	1.8564561942109579	-0.6511273902612488	-0.1705394304168488	1.8585887035286044	-0.5894237803509119	-0.18734878743811856	1.7311474080580251	-0.5653640529607848	-0.18499547146220974	1.6156158186031595	-0.5383709431468646	-0.20133129334533562	1.5886783080986502	-0.523165802034298				-0.17964478268097653	1.61349727573549	-0.5529654986855468	-0.1452277604278567	1.854636415746547	-0.7034807881782775	-0.1516432857072426	1.7336250045390367	-0.68023132501835	-0.1428191583310259	1.6235595653375559	-0.6738424746637552	-0.1639382183566629	1.598557025470365	-0.662210529669676	-0.15584485600756204	1.6020834987495547	-0.6910140619162599	-0.13462870162928786	1.6134219202236553	-0.6645320677866758	-0.13376973419619315	1.9882631842873466	-0.700061174558525	-0.1510824107263246	2.045217867993462	-0.7021183348524038	-0.14998667525857526	1.9884874415596907	-0.6341577044087323	-0.18438276664343511	1.947287399893591	-0.5798272574432171	-0.16479906429426294	1.9920161249787616	-0.658633047912165	-0.11621799507938983	1.9891242522665753	-0.7770688536954106	-1.126877675525234	1.862550372277858	0.23855233017141467	-0.1442014528875081	1.9990210460094444	-0.7210225894430365
45	1.5	-0.1595573796621685	1.858006256378911	-0.6513196916464897	-0.17027914289663504	1.8588965826481885	-0.5894162944237405	-0.1859535213035112	1.7317711720146347	-0.5625956001174937	-0.1802530089844961	1.6150641881074363	-0.5436557043736827	-0.20133129334533562	1.5886783080986502	-0.523165802034298				-0.1750178565742239	1.6111843048740961	-0.5580813403573672	-0.14497901652562423	1.8559595427354436	-0.7037159935840255	-0.1511998838708157	1.7377448313659896	-0.6810118620495	-0.14112953910837678	1.624849318137325	-0.671902894111137	-0.16383118581006836	1.5984059332455631	-0.662205849060765	-0.15449926630402339	1.6025575961199243	-0.6885610524353457	-0.13337753946305603	1.6140296954019013	-0.6619336177318801	-0.12812795073679775	1.9877248224360404	-0.7100639786919969	-0.1460601656270277	2.0432512320618765	-0.7143589142183415	-0.1488178502167684	1.987030644071262	-0.6397706732274737	-0.1821981479302526	1.9527218536798532	-0.5829568755791722	-0.15681781195262615	1.9975373764600146	-0.6717155920033754	-0.10795075898759529	1.98757710014949	-0.7891803435870473	-1.1001587667598396	1.8606038607406552	0.20615878999364712	-1.2589472322299022	1.904181171338909	0.44646776645694447
46	1.5333333333333334	-0.15862286294859557	1.8563199532243546	-0.6480249802502581	-0.16935327006244752	1.857766636333719	-0.5862033421365846	-0.18324710217455428	1.7305007847327316	-0.5611286942212268	-0.17835559726973785	1.6166806972315493	-0.5457782143541975	-0.20133129334533562	1.5886783080986502	-0.523165802034298				-0.17410184500548884	1.6131760652451343	-0.5632362549542299	-0.1452174692231031	1.8545316473708087	-0.7034029112606934	-0.15133162194513866	1.735048024067565	-0.6805760802258513	-0.14143310498255887	1.623741735184064	-0.6714075997643243	-0.16575573350426875	1.5964265610019441	-0.6600384475475469	-0.15590481071866272	1.6023378207069598	-0.682985771028115	-0.1344987383362537	1.6131824018912975	-0.6645074883721082	-0.12662651283389825	1.9872094140323986	-0.7151930392971267	-0.1380177327066843	2.042028856866819	-0.7271603718815558	-1.476086712509221	1.8976786884766015	0.7919667157303	-0.17999193565890886	1.9553987502186971	-0.5856518748621372	-0.15029873956887882	2.0001601073025297	-0.6791866477258769	-0.1057025045487437	1.9855873046680084	-0.7914260571233402	-1.0922639787643922	1.8608495885131147	0.19824072355886987	-0.1223731625175443	2.000109800432621	-0.7469753761305208
